<svg xmlns="http://www.w3.org/2000/svg" xmlns:xlink="http://www.w3.org/1999/xlink" width="500" zoomAndPan="magnify" viewBox="0 0 375 374.999991" height="500" preserveAspectRatio="xMidYMid meet" version="1.0"><metadata><ContainsAiGeneratedContent>Yes</ContainsAiGeneratedContent></metadata><defs><clipPath id="b2ce5f462d"><path d="M 49.261719 68.65625 L 311 68.65625 L 311 317.65625 L 49.261719 317.65625 Z M 49.261719 68.65625 " clip-rule="nonzero"/></clipPath></defs><rect x="-37.5" width="450" fill="#ffffff" y="-37.499999" height="449.999989" fill-opacity="1"/><rect x="-37.5" width="450" fill="#ffffff" y="-37.499999" height="449.999989" fill-opacity="1"/><g clip-path="url(#b2ce5f462d)"><path fill="#200063" d="M 297.976562 75.0625 L 210.570312 75.0625 C 209.644531 71.398438 206.328125 68.675781 202.378906 68.675781 L 157.707031 68.675781 C 153.042969 68.675781 149.246094 72.472656 149.246094 77.136719 L 149.246094 93.28125 C 147.085938 95.222656 145.667969 97.796875 145.183594 100.628906 L 125.796875 100.628906 C 121.132812 100.628906 117.335938 104.425781 117.335938 109.089844 L 117.335938 125.234375 C 114.644531 127.648438 113.109375 131.039062 113.089844 134.703125 L 93.882812 134.703125 C 89.222656 134.703125 85.429688 138.503906 85.429688 143.171875 L 85.429688 159.316406 C 83.269531 161.253906 81.851562 163.824219 81.363281 166.65625 L 61.976562 166.65625 C 57.3125 166.65625 53.519531 170.453125 53.519531 175.121094 L 53.519531 191.261719 C 50.804688 193.699219 49.261719 197.125 49.261719 200.820312 L 49.261719 304.921875 C 49.261719 312.011719 55.027344 317.78125 62.113281 317.78125 L 202.246094 317.78125 C 209.332031 317.78125 215.09375 312.011719 215.09375 304.921875 L 215.09375 285.828125 L 234.15625 285.828125 C 241.238281 285.828125 247 280.058594 247 272.96875 L 247 251.753906 L 266.0625 251.753906 C 273.148438 251.753906 278.914062 245.980469 278.914062 238.886719 L 278.914062 219.800781 L 297.976562 219.800781 C 305.058594 219.800781 310.824219 214.03125 310.824219 206.9375 L 310.824219 87.929688 C 310.824219 80.832031 305.0625 75.0625 297.976562 75.0625 Z M 210.941406 304.921875 C 210.941406 309.722656 207.042969 313.628906 202.246094 313.628906 L 62.113281 313.628906 C 57.316406 313.628906 53.414062 309.722656 53.414062 304.921875 L 53.414062 200.820312 C 53.414062 198.074219 54.667969 195.546875 56.851562 193.882812 C 58.375 192.722656 60.195312 192.105469 62.113281 192.105469 L 113.035156 192.105469 C 114.179688 192.105469 115.109375 191.175781 115.109375 190.03125 L 115.109375 177.195312 L 202.246094 177.195312 C 207.042969 177.195312 210.941406 181.105469 210.941406 185.910156 Z M 242.851562 272.96875 C 242.851562 277.769531 238.949219 281.675781 234.15625 281.675781 L 215.09375 281.675781 L 215.09375 185.910156 C 215.09375 178.816406 209.332031 173.042969 202.246094 173.042969 L 114.839844 173.042969 C 113.914062 169.378906 110.597656 166.65625 106.652344 166.65625 L 85.613281 166.65625 C 86.097656 164.792969 87.1875 163.132812 88.765625 161.933594 C 90.285156 160.773438 92.101562 160.160156 94.023438 160.160156 L 144.941406 160.160156 C 146.085938 160.160156 147.015625 159.230469 147.015625 158.082031 L 147.015625 145.25 L 234.15625 145.25 C 238.949219 145.25 242.851562 149.15625 242.851562 153.957031 Z M 274.761719 217.722656 L 274.761719 238.886719 C 274.761719 243.691406 270.859375 247.601562 266.0625 247.601562 L 247 247.601562 L 247 153.957031 C 247 146.867188 241.238281 141.097656 234.15625 141.097656 L 146.75 141.097656 C 145.820312 137.429688 142.507812 134.703125 138.5625 134.703125 L 117.242188 134.703125 C 117.269531 131.988281 118.511719 129.496094 120.671875 127.851562 C 122.191406 126.691406 124.007812 126.078125 125.929688 126.078125 L 176.851562 126.078125 C 178 126.078125 178.929688 125.148438 178.929688 124 L 178.929688 111.167969 L 266.0625 111.167969 C 270.859375 111.167969 274.761719 115.074219 274.761719 119.875 Z M 306.671875 206.9375 C 306.671875 211.742188 302.769531 215.648438 297.976562 215.648438 L 278.914062 215.648438 L 278.914062 119.875 C 278.914062 112.785156 273.148438 107.015625 266.0625 107.015625 L 178.660156 107.015625 C 177.730469 103.351562 174.414062 100.628906 170.46875 100.628906 L 149.429688 100.628906 C 149.914062 98.765625 151.003906 97.101562 152.582031 95.898438 C 154.105469 94.738281 155.925781 94.125 157.84375 94.125 L 208.765625 94.125 C 209.910156 94.125 210.839844 93.195312 210.839844 92.050781 L 210.839844 79.214844 L 297.976562 79.214844 C 302.769531 79.214844 306.671875 83.125 306.671875 87.929688 Z M 306.671875 206.9375 " fill-opacity="1" fill-rule="nonzero"/></g></svg>