<svg xmlns="http://www.w3.org/2000/svg" xmlns:xlink="http://www.w3.org/1999/xlink" width="1000" zoomAndPan="magnify" viewBox="0 0 750 262.499992" height="350" preserveAspectRatio="xMidYMid meet" version="1.0"><defs><g/><clipPath id="097300c163"><path d="M 4.292969 3.519531 L 270.035156 3.519531 L 270.035156 256.539062 L 4.292969 256.539062 Z M 4.292969 3.519531 " clip-rule="nonzero"/></clipPath></defs><g clip-path="url(#097300c163)"><path fill="#200063" d="M 257.125 10.03125 L 168.273438 10.03125 C 167.328125 6.304688 163.960938 3.535156 159.945312 3.535156 L 114.535156 3.535156 C 109.792969 3.535156 105.933594 7.394531 105.933594 12.140625 L 105.933594 28.550781 C 103.738281 30.523438 102.296875 33.140625 101.800781 36.019531 L 82.09375 36.019531 C 77.351562 36.019531 73.492188 39.878906 73.492188 44.625 L 73.492188 61.03125 C 70.757812 63.488281 69.199219 66.933594 69.175781 70.660156 L 49.652344 70.660156 C 44.914062 70.660156 41.058594 74.519531 41.058594 79.269531 L 41.058594 95.679688 C 38.863281 97.648438 37.421875 100.261719 36.925781 103.140625 L 17.21875 103.140625 C 12.476562 103.140625 8.617188 107 8.617188 111.746094 L 8.617188 128.15625 C 5.859375 130.632812 4.292969 134.117188 4.292969 137.871094 L 4.292969 243.695312 C 4.292969 250.90625 10.152344 256.769531 17.355469 256.769531 L 159.808594 256.769531 C 167.011719 256.769531 172.871094 250.90625 172.871094 243.695312 L 172.871094 224.289062 L 192.25 224.289062 C 199.449219 224.289062 205.308594 218.421875 205.308594 211.214844 L 205.308594 189.648438 L 224.683594 189.648438 C 231.886719 189.648438 237.746094 183.78125 237.746094 176.570312 L 237.746094 157.164062 L 257.125 157.164062 C 264.328125 157.164062 270.1875 151.300781 270.1875 144.089844 L 270.1875 23.109375 C 270.1875 15.898438 264.328125 10.03125 257.125 10.03125 Z M 168.652344 243.695312 C 168.652344 248.578125 164.683594 252.550781 159.808594 252.550781 L 17.355469 252.550781 C 12.480469 252.550781 8.511719 248.578125 8.511719 243.695312 L 8.511719 137.871094 C 8.511719 135.082031 9.785156 132.511719 12.007812 130.820312 C 13.558594 129.636719 15.40625 129.015625 17.355469 129.015625 L 69.121094 129.015625 C 70.285156 129.015625 71.230469 128.070312 71.230469 126.902344 L 71.230469 113.855469 L 159.808594 113.855469 C 164.683594 113.855469 168.652344 117.832031 168.652344 122.714844 Z M 201.085938 211.214844 C 201.085938 216.09375 197.121094 220.066406 192.25 220.066406 L 172.871094 220.066406 L 172.871094 122.714844 C 172.871094 115.503906 167.011719 109.636719 159.808594 109.636719 L 70.957031 109.636719 C 70.011719 105.910156 66.644531 103.140625 62.632812 103.140625 L 41.246094 103.140625 C 41.738281 101.246094 42.84375 99.5625 44.449219 98.339844 C 45.992188 97.160156 47.84375 96.535156 49.796875 96.535156 L 101.554688 96.535156 C 102.71875 96.535156 103.664062 95.589844 103.664062 94.425781 L 103.664062 81.378906 L 192.25 81.378906 C 197.121094 81.378906 201.085938 85.351562 201.085938 90.230469 Z M 233.527344 155.054688 L 233.527344 176.570312 C 233.527344 181.453125 229.558594 185.425781 224.683594 185.425781 L 205.308594 185.425781 L 205.308594 90.230469 C 205.308594 83.023438 199.449219 77.160156 192.25 77.160156 L 103.394531 77.160156 C 102.449219 73.429688 99.082031 70.660156 95.070312 70.660156 L 73.398438 70.660156 C 73.425781 67.902344 74.6875 65.367188 76.886719 63.695312 C 78.429688 62.515625 80.277344 61.890625 82.230469 61.890625 L 133.996094 61.890625 C 135.160156 61.890625 136.105469 60.945312 136.105469 59.78125 L 136.105469 46.734375 L 224.683594 46.734375 C 229.558594 46.734375 233.527344 50.703125 233.527344 55.585938 Z M 265.96875 144.089844 C 265.96875 148.972656 262 152.945312 257.125 152.945312 L 237.746094 152.945312 L 237.746094 55.585938 C 237.746094 48.378906 231.886719 42.511719 224.683594 42.511719 L 135.832031 42.511719 C 134.886719 38.785156 131.519531 36.019531 127.507812 36.019531 L 106.121094 36.019531 C 106.613281 34.125 107.71875 32.4375 109.324219 31.214844 C 110.875 30.03125 112.722656 29.410156 114.671875 29.410156 L 166.4375 29.410156 C 167.601562 29.410156 168.546875 28.464844 168.546875 27.296875 L 168.546875 14.25 L 257.125 14.25 C 262 14.25 265.96875 18.222656 265.96875 23.109375 Z M 265.96875 144.089844 " fill-opacity="1" fill-rule="nonzero"/></g><g fill="#200063" fill-opacity="1"><g transform="translate(284.53767, 202.440027)"><g><path d="M 45.6875 1.203125 C 37.988281 1.203125 31.203125 -0.394531 25.328125 -3.59375 C 19.460938 -6.800781 14.867188 -11.613281 11.546875 -18.03125 C 8.234375 -24.457031 6.578125 -32.378906 6.578125 -41.796875 C 6.578125 -51.210938 8.234375 -59.128906 11.546875 -65.546875 C 14.867188 -71.972656 19.460938 -76.785156 25.328125 -79.984375 C 31.203125 -83.191406 37.988281 -84.796875 45.6875 -84.796875 C 53.726562 -84.796875 60.5625 -83.222656 66.1875 -80.078125 C 71.8125 -76.929688 75.820312 -72.140625 78.21875 -65.703125 L 66.15625 -58.328125 L 64.734375 -58.390625 C 62.941406 -62.734375 60.507812 -65.847656 57.4375 -67.734375 C 54.375 -69.617188 50.457031 -70.5625 45.6875 -70.5625 C 38.75 -70.5625 33.332031 -68.265625 29.4375 -63.671875 C 25.550781 -59.078125 23.609375 -51.785156 23.609375 -41.796875 C 23.609375 -31.847656 25.550781 -24.578125 29.4375 -19.984375 C 33.332031 -15.390625 38.75 -13.09375 45.6875 -13.09375 C 56.550781 -13.09375 63.203125 -18.375 65.640625 -28.9375 L 67.078125 -28.9375 L 79.25 -22.59375 C 76.96875 -14.65625 73.0625 -8.703125 67.53125 -4.734375 C 62 -0.773438 54.71875 1.203125 45.6875 1.203125 Z M 45.6875 1.203125 "/></g></g></g><g fill="#200063" fill-opacity="1"><g transform="translate(366.534083, 202.440027)"><g><path d="M 26.1875 1.203125 C 20.507812 1.203125 16.171875 -0.328125 13.171875 -3.390625 C 10.179688 -6.460938 8.6875 -11.128906 8.6875 -17.390625 L 8.6875 -88.40625 L 24.53125 -88.40625 L 24.53125 -18.015625 C 24.53125 -14.160156 26.128906 -12.234375 29.328125 -12.234375 C 30.242188 -12.234375 31.21875 -12.382812 32.25 -12.6875 L 33.046875 -12.46875 L 34.484375 -0.28125 C 33.609375 0.175781 32.441406 0.535156 30.984375 0.796875 C 29.535156 1.066406 27.9375 1.203125 26.1875 1.203125 Z M 26.1875 1.203125 "/></g></g></g><g fill="#200063" fill-opacity="1"><g transform="translate(402.786334, 202.440027)"><g><path d="M 24.59375 1.203125 C 20.550781 1.203125 17.039062 0.457031 14.0625 -1.03125 C 11.09375 -2.519531 8.804688 -4.703125 7.203125 -7.578125 C 5.597656 -10.453125 4.796875 -13.910156 4.796875 -17.953125 C 4.796875 -21.691406 5.597656 -24.828125 7.203125 -27.359375 C 8.804688 -29.898438 11.285156 -31.976562 14.640625 -33.59375 C 17.992188 -35.21875 22.378906 -36.46875 27.796875 -37.34375 C 31.566406 -37.945312 34.429688 -38.609375 36.390625 -39.328125 C 38.359375 -40.054688 39.6875 -40.878906 40.375 -41.796875 C 41.0625 -42.710938 41.40625 -43.875 41.40625 -45.28125 C 41.40625 -47.300781 40.695312 -48.84375 39.28125 -49.90625 C 37.875 -50.976562 35.53125 -51.515625 32.25 -51.515625 C 28.738281 -51.515625 25.398438 -50.734375 22.234375 -49.171875 C 19.078125 -47.609375 16.335938 -45.550781 14.015625 -43 L 12.859375 -43 L 6.234375 -53.015625 C 9.429688 -56.554688 13.335938 -59.316406 17.953125 -61.296875 C 22.566406 -63.273438 27.597656 -64.265625 33.046875 -64.265625 C 41.398438 -64.265625 47.441406 -62.492188 51.171875 -58.953125 C 54.910156 -55.410156 56.78125 -50.378906 56.78125 -43.859375 L 56.78125 -16.46875 C 56.78125 -13.644531 58.019531 -12.234375 60.5 -12.234375 C 61.445312 -12.234375 62.378906 -12.40625 63.296875 -12.75 L 64.09375 -12.515625 L 65.25 -1.484375 C 64.375 -0.910156 63.148438 -0.441406 61.578125 -0.078125 C 60.015625 0.273438 58.300781 0.453125 56.4375 0.453125 C 52.664062 0.453125 49.722656 -0.269531 47.609375 -1.71875 C 45.492188 -3.164062 43.976562 -5.429688 43.0625 -8.515625 L 41.859375 -8.640625 C 38.765625 -2.078125 33.007812 1.203125 24.59375 1.203125 Z M 29.625 -10.640625 C 33.28125 -10.640625 36.203125 -11.867188 38.390625 -14.328125 C 40.585938 -16.785156 41.6875 -20.207031 41.6875 -24.59375 L 41.6875 -31 L 40.59375 -31.21875 C 39.644531 -30.457031 38.394531 -29.816406 36.84375 -29.296875 C 35.300781 -28.785156 33.082031 -28.285156 30.1875 -27.796875 C 26.757812 -27.222656 24.289062 -26.238281 22.78125 -24.84375 C 21.28125 -23.457031 20.53125 -21.484375 20.53125 -18.921875 C 20.53125 -16.222656 21.328125 -14.164062 22.921875 -12.75 C 24.523438 -11.34375 26.757812 -10.640625 29.625 -10.640625 Z M 29.625 -10.640625 "/></g></g></g><g fill="#200063" fill-opacity="1"><g transform="translate(469.286912, 202.440027)"><g><path d="M 29.5 1.203125 C 25.195312 1.203125 21.253906 0.695312 17.671875 -0.3125 C 14.085938 -1.320312 11.023438 -2.710938 8.484375 -4.484375 C 5.953125 -6.253906 4.078125 -8.285156 2.859375 -10.578125 L 11.671875 -20.078125 L 12.859375 -20.078125 C 14.960938 -17.253906 17.441406 -15.132812 20.296875 -13.71875 C 23.160156 -12.3125 26.269531 -11.609375 29.625 -11.609375 C 32.707031 -11.609375 35.03125 -12.160156 36.59375 -13.265625 C 38.15625 -14.367188 38.9375 -15.953125 38.9375 -18.015625 C 38.9375 -19.617188 38.375 -20.960938 37.25 -22.046875 C 36.125 -23.128906 34.304688 -23.976562 31.796875 -24.59375 L 23.4375 -26.59375 C 17.1875 -28.070312 12.625 -30.347656 9.75 -33.421875 C 6.875 -36.492188 5.4375 -40.390625 5.4375 -45.109375 C 5.4375 -49.035156 6.4375 -52.445312 8.4375 -55.34375 C 10.4375 -58.25 13.253906 -60.460938 16.890625 -61.984375 C 20.535156 -63.503906 24.78125 -64.265625 29.625 -64.265625 C 35.300781 -64.265625 40.003906 -63.445312 43.734375 -61.8125 C 47.472656 -60.175781 50.394531 -57.984375 52.5 -55.234375 L 44.03125 -46.09375 L 42.890625 -46.09375 C 41.128906 -48.070312 39.15625 -49.519531 36.96875 -50.4375 C 34.78125 -51.351562 32.332031 -51.8125 29.625 -51.8125 C 23.375 -51.8125 20.25 -49.863281 20.25 -45.96875 C 20.25 -44.332031 20.828125 -43 21.984375 -41.96875 C 23.148438 -40.9375 25.203125 -40.097656 28.140625 -39.453125 L 35.90625 -37.734375 C 42.3125 -36.367188 46.988281 -34.171875 49.9375 -31.140625 C 52.894531 -28.109375 54.375 -24.035156 54.375 -18.921875 C 54.375 -14.921875 53.382812 -11.394531 51.40625 -8.34375 C 49.425781 -5.300781 46.566406 -2.945312 42.828125 -1.28125 C 39.085938 0.375 34.644531 1.203125 29.5 1.203125 Z M 29.5 1.203125 "/></g></g></g><g fill="#200063" fill-opacity="1"><g transform="translate(527.43918, 202.440027)"><g><path d="M 29.5 1.203125 C 25.195312 1.203125 21.253906 0.695312 17.671875 -0.3125 C 14.085938 -1.320312 11.023438 -2.710938 8.484375 -4.484375 C 5.953125 -6.253906 4.078125 -8.285156 2.859375 -10.578125 L 11.671875 -20.078125 L 12.859375 -20.078125 C 14.960938 -17.253906 17.441406 -15.132812 20.296875 -13.71875 C 23.160156 -12.3125 26.269531 -11.609375 29.625 -11.609375 C 32.707031 -11.609375 35.03125 -12.160156 36.59375 -13.265625 C 38.15625 -14.367188 38.9375 -15.953125 38.9375 -18.015625 C 38.9375 -19.617188 38.375 -20.960938 37.25 -22.046875 C 36.125 -23.128906 34.304688 -23.976562 31.796875 -24.59375 L 23.4375 -26.59375 C 17.1875 -28.070312 12.625 -30.347656 9.75 -33.421875 C 6.875 -36.492188 5.4375 -40.390625 5.4375 -45.109375 C 5.4375 -49.035156 6.4375 -52.445312 8.4375 -55.34375 C 10.4375 -58.25 13.253906 -60.460938 16.890625 -61.984375 C 20.535156 -63.503906 24.78125 -64.265625 29.625 -64.265625 C 35.300781 -64.265625 40.003906 -63.445312 43.734375 -61.8125 C 47.472656 -60.175781 50.394531 -57.984375 52.5 -55.234375 L 44.03125 -46.09375 L 42.890625 -46.09375 C 41.128906 -48.070312 39.15625 -49.519531 36.96875 -50.4375 C 34.78125 -51.351562 32.332031 -51.8125 29.625 -51.8125 C 23.375 -51.8125 20.25 -49.863281 20.25 -45.96875 C 20.25 -44.332031 20.828125 -43 21.984375 -41.96875 C 23.148438 -40.9375 25.203125 -40.097656 28.140625 -39.453125 L 35.90625 -37.734375 C 42.3125 -36.367188 46.988281 -34.171875 49.9375 -31.140625 C 52.894531 -28.109375 54.375 -24.035156 54.375 -18.921875 C 54.375 -14.921875 53.382812 -11.394531 51.40625 -8.34375 C 49.425781 -5.300781 46.566406 -2.945312 42.828125 -1.28125 C 39.085938 0.375 34.644531 1.203125 29.5 1.203125 Z M 29.5 1.203125 "/></g></g></g><g fill="#200063" fill-opacity="1"><g transform="translate(585.591449, 202.440027)"><g><path d="M 16.984375 -70.625 C 14.117188 -70.625 11.789062 -71.488281 10 -73.21875 C 8.207031 -74.957031 7.3125 -77.195312 7.3125 -79.9375 C 7.3125 -82.644531 8.207031 -84.863281 10 -86.59375 C 11.789062 -88.332031 14.117188 -89.203125 16.984375 -89.203125 C 18.890625 -89.203125 20.582031 -88.800781 22.0625 -88 C 23.550781 -87.195312 24.707031 -86.097656 25.53125 -84.703125 C 26.351562 -83.316406 26.765625 -81.726562 26.765625 -79.9375 C 26.765625 -78.144531 26.351562 -76.539062 25.53125 -75.125 C 24.707031 -73.71875 23.550781 -72.613281 22.0625 -71.8125 C 20.582031 -71.019531 18.890625 -70.625 16.984375 -70.625 Z M 9.09375 0 L 9.09375 -63.078125 L 24.9375 -63.078125 L 24.9375 0 Z M 9.09375 0 "/></g></g></g><g fill="#200063" fill-opacity="1"><g transform="translate(619.556491, 202.440027)"><g><path d="M 11.03125 0 L 11.03125 -50.546875 L 2.109375 -50.546875 L 2.109375 -63.125 L 11.03125 -63.125 C 10.382812 -65.789062 10.0625 -68.289062 10.0625 -70.625 C 10.0625 -74.625 10.972656 -78.039062 12.796875 -80.875 C 14.628906 -83.71875 17.257812 -85.882812 20.6875 -87.375 C 24.125 -88.863281 28.207031 -89.609375 32.9375 -89.609375 C 39.914062 -89.609375 45.117188 -88.40625 48.546875 -86 L 44.828125 -74.34375 L 43.625 -74.109375 C 41.257812 -75.785156 38.226562 -76.625 34.53125 -76.625 C 31.675781 -76.625 29.53125 -75.925781 28.09375 -74.53125 C 26.664062 -73.144531 25.953125 -71.25 25.953125 -68.84375 C 25.953125 -67.8125 26.019531 -66.867188 26.15625 -66.015625 C 26.289062 -65.160156 26.53125 -64.195312 26.875 -63.125 L 44.890625 -63.125 L 44.890625 -50.546875 L 26.875 -50.546875 L 26.875 0 Z M 11.03125 0 "/></g></g></g><g fill="#200063" fill-opacity="1"><g transform="translate(665.071933, 202.440027)"><g><path d="M 13.953125 26.765625 C 11.242188 26.765625 8.789062 26.550781 6.59375 26.125 C 4.40625 25.707031 2.628906 25.15625 1.265625 24.46875 L 3.78125 11.671875 L 4.796875 11.328125 C 5.753906 11.816406 6.9375 12.210938 8.34375 12.515625 C 9.757812 12.828125 11.207031 12.984375 12.6875 12.984375 C 15.25 12.984375 17.375 12.648438 19.0625 11.984375 C 20.757812 11.316406 22.195312 10.207031 23.375 8.65625 C 24.5625 7.113281 25.613281 4.972656 26.53125 2.234375 L 1.375 -63.078125 L 17.953125 -63.078125 L 33.625 -19.21875 L 35 -19.21875 L 50.265625 -63.078125 L 66.390625 -63.078125 L 41.0625 3.953125 C 39.039062 9.359375 36.816406 13.707031 34.390625 17 C 31.972656 20.300781 29.113281 22.753906 25.8125 24.359375 C 22.519531 25.960938 18.566406 26.765625 13.953125 26.765625 Z M 13.953125 26.765625 "/></g></g></g></svg>